<?xml version="1.0" encoding="UTF-8" standalone="no"?><svg xmlns="http://www.w3.org/2000/svg" xmlns:xlink="http://www.w3.org/1999/xlink" contentScriptType="application/ecmascript" contentStyleType="text/css" height="246px" preserveAspectRatio="none" style="width:620px;height:246px;" version="1.1" viewBox="0 0 620 246" width="620px" zoomAndPan="magnify"><defs><filter height="300%" id="f10tc56br8e4nv" width="300%" x="-1" y="-1"><feGaussianBlur result="blurOut" stdDeviation="2.0"/><feColorMatrix in="blurOut" result="blurOut2" type="matrix" values="0 0 0 0 0 0 0 0 0 0 0 0 0 0 0 0 0 0 .4 0"/><feOffset dx="4.0" dy="4.0" in="blurOut2" result="blurOut3"/><feBlend in="SourceGraphic" in2="blurOut3" mode="normal"/></filter></defs><g><text fill="#000000" font-family="sans-serif" font-size="18" lengthAdjust="spacingAndGlyphs" textLength="94" x="267" y="16.708">Calculator</text><!--MD5=[56c17820b5ec61b985b118caeb6340b1]
class Ui--><rect fill="#FEFECE" filter="url(#f10tc56br8e4nv)" height="48" id="Ui" style="stroke: #A80036; stroke-width: 1.5;" width="44" x="6" y="54.4531"/><ellipse cx="21" cy="70.4531" fill="#ADD1B2" rx="11" ry="11" style="stroke: #A80036; stroke-width: 1.0;"/><path d="M23.3438,66.125 C22.4063,65.6875 21.8125,65.5469 20.9375,65.5469 C18.3125,65.5469 16.3125,67.625 16.3125,70.3438 L16.3125,71.4688 C16.3125,74.0469 18.4219,75.9375 21.3125,75.9375 C22.5313,75.9375 23.6875,75.6406 24.4375,75.0938 C25.0156,74.6875 25.3438,74.2344 25.3438,73.8438 C25.3438,73.3906 24.9531,73 24.4844,73 C24.2656,73 24.0625,73.0781 23.875,73.2656 C23.4219,73.75 23.4219,73.75 23.2344,73.8438 C22.8125,74.1094 22.125,74.2344 21.3594,74.2344 C19.3125,74.2344 18.0156,73.1406 18.0156,71.4375 L18.0156,70.3438 C18.0156,68.5625 19.2656,67.25 21,67.25 C21.5781,67.25 22.1875,67.4063 22.6563,67.6563 C23.1406,67.9375 23.3125,68.1563 23.4063,68.5625 C23.4688,68.9688 23.5,69.0938 23.6406,69.2188 C23.7813,69.3594 24.0156,69.4688 24.2344,69.4688 C24.5,69.4688 24.7656,69.3281 24.9375,69.1094 C25.0469,68.9531 25.0781,68.7656 25.0781,68.3438 L25.0781,66.9219 C25.0781,66.4844 25.0625,66.3594 24.9688,66.2031 C24.8125,65.9375 24.5313,65.7969 24.2344,65.7969 C23.9375,65.7969 23.7344,65.8906 23.5156,66.2031 L23.3438,66.125 Z "/><text fill="#000000" font-family="sans-serif" font-size="12" lengthAdjust="spacingAndGlyphs" textLength="12" x="35" y="74.6074">Ui</text><line style="stroke: #A80036; stroke-width: 1.5;" x1="7" x2="49" y1="86.4531" y2="86.4531"/><line style="stroke: #A80036; stroke-width: 1.5;" x1="7" x2="49" y1="94.4531" y2="94.4531"/><!--MD5=[10e7aab29d16643b316cca3f1cb80785]
class ShowStrategy--><rect fill="#FEFECE" filter="url(#f10tc56br8e4nv)" height="60.8047" id="ShowStrategy" style="stroke: #A80036; stroke-width: 1.5;" width="134" x="85" y="47.9531"/><ellipse cx="107.65" cy="63.9531" fill="#B4A7E5" rx="11" ry="11" style="stroke: #A80036; stroke-width: 1.0;"/><path d="M108.6031,60.7344 L110.3219,60.7344 C110.7125,60.7344 110.9,60.7031 111.025,60.625 C111.2906,60.4688 111.4313,60.1875 111.4313,59.8906 C111.4313,59.625 111.3219,59.3594 111.0875,59.1875 C110.9156,59.0781 110.775,59.0469 110.3219,59.0469 L105.1813,59.0469 C104.7438,59.0469 104.6188,59.0625 104.4625,59.1563 C104.2125,59.3125 104.0563,59.6094 104.0563,59.8906 C104.0563,60.1719 104.1969,60.4219 104.4156,60.5938 C104.5719,60.7031 104.7594,60.7344 105.1813,60.7344 L106.9,60.7344 L106.9,67.25 L105.1813,67.25 C104.7438,67.25 104.6188,67.2656 104.4625,67.375 C104.2125,67.5313 104.0563,67.8125 104.0563,68.1094 C104.0563,68.3594 104.1969,68.625 104.4156,68.7813 C104.5719,68.9063 104.775,68.9531 105.1813,68.9531 L110.3219,68.9531 C111.0719,68.9531 111.4313,68.6719 111.4313,68.1094 C111.4313,67.8281 111.3219,67.5781 111.0875,67.4063 C110.9156,67.2813 110.775,67.25 110.3219,67.25 L108.6031,67.25 L108.6031,60.7344 Z "/><text fill="#000000" font-family="sans-serif" font-size="12" font-style="italic" lengthAdjust="spacingAndGlyphs" textLength="85" x="123.35" y="68.1074">ShowStrategy</text><line style="stroke: #A80036; stroke-width: 1.5;" x1="86" x2="218" y1="79.9531" y2="79.9531"/><line style="stroke: #A80036; stroke-width: 1.5;" x1="86" x2="218" y1="87.9531" y2="87.9531"/><ellipse cx="96" cy="98.9531" fill="#84BE84" rx="3" ry="3" style="stroke: #038048; stroke-width: 1.0;"/><text fill="#000000" font-family="sans-serif" font-size="11" lengthAdjust="spacingAndGlyphs" textLength="108" x="105" y="102.1636">show(string: String)</text><!--MD5=[6701fb24f5b5440f316ff86567a21294]
class ConsoleStrategy--><rect fill="#FEFECE" filter="url(#f10tc56br8e4nv)" height="48" id="ConsoleStrategy" style="stroke: #A80036; stroke-width: 1.5;" width="132" x="68" y="187.9531"/><ellipse cx="83" cy="203.9531" fill="#ADD1B2" rx="11" ry="11" style="stroke: #A80036; stroke-width: 1.0;"/><path d="M85.3438,199.625 C84.4063,199.1875 83.8125,199.0469 82.9375,199.0469 C80.3125,199.0469 78.3125,201.125 78.3125,203.8438 L78.3125,204.9688 C78.3125,207.5469 80.4219,209.4375 83.3125,209.4375 C84.5313,209.4375 85.6875,209.1406 86.4375,208.5938 C87.0156,208.1875 87.3438,207.7344 87.3438,207.3438 C87.3438,206.8906 86.9531,206.5 86.4844,206.5 C86.2656,206.5 86.0625,206.5781 85.875,206.7656 C85.4219,207.25 85.4219,207.25 85.2344,207.3438 C84.8125,207.6094 84.125,207.7344 83.3594,207.7344 C81.3125,207.7344 80.0156,206.6406 80.0156,204.9375 L80.0156,203.8438 C80.0156,202.0625 81.2656,200.75 83,200.75 C83.5781,200.75 84.1875,200.9063 84.6563,201.1563 C85.1406,201.4375 85.3125,201.6563 85.4063,202.0625 C85.4688,202.4688 85.5,202.5938 85.6406,202.7188 C85.7813,202.8594 86.0156,202.9688 86.2344,202.9688 C86.5,202.9688 86.7656,202.8281 86.9375,202.6094 C87.0469,202.4531 87.0781,202.2656 87.0781,201.8438 L87.0781,200.4219 C87.0781,199.9844 87.0625,199.8594 86.9688,199.7031 C86.8125,199.4375 86.5313,199.2969 86.2344,199.2969 C85.9375,199.2969 85.7344,199.3906 85.5156,199.7031 L85.3438,199.625 Z "/><text fill="#000000" font-family="sans-serif" font-size="12" lengthAdjust="spacingAndGlyphs" textLength="100" x="97" y="208.1074">ConsoleStrategy</text><line style="stroke: #A80036; stroke-width: 1.5;" x1="69" x2="199" y1="219.9531" y2="219.9531"/><line style="stroke: #A80036; stroke-width: 1.5;" x1="69" x2="199" y1="227.9531" y2="227.9531"/><!--MD5=[0a22b5cb9b504060d533579787fe0804]
class SwingStrategy--><rect fill="#FEFECE" filter="url(#f10tc56br8e4nv)" height="48" id="SwingStrategy" style="stroke: #A80036; stroke-width: 1.5;" width="119" x="235.5" y="187.9531"/><ellipse cx="250.5" cy="203.9531" fill="#ADD1B2" rx="11" ry="11" style="stroke: #A80036; stroke-width: 1.0;"/><path d="M252.8438,199.625 C251.9063,199.1875 251.3125,199.0469 250.4375,199.0469 C247.8125,199.0469 245.8125,201.125 245.8125,203.8438 L245.8125,204.9688 C245.8125,207.5469 247.9219,209.4375 250.8125,209.4375 C252.0313,209.4375 253.1875,209.1406 253.9375,208.5938 C254.5156,208.1875 254.8438,207.7344 254.8438,207.3438 C254.8438,206.8906 254.4531,206.5 253.9844,206.5 C253.7656,206.5 253.5625,206.5781 253.375,206.7656 C252.9219,207.25 252.9219,207.25 252.7344,207.3438 C252.3125,207.6094 251.625,207.7344 250.8594,207.7344 C248.8125,207.7344 247.5156,206.6406 247.5156,204.9375 L247.5156,203.8438 C247.5156,202.0625 248.7656,200.75 250.5,200.75 C251.0781,200.75 251.6875,200.9063 252.1563,201.1563 C252.6406,201.4375 252.8125,201.6563 252.9063,202.0625 C252.9688,202.4688 253,202.5938 253.1406,202.7188 C253.2813,202.8594 253.5156,202.9688 253.7344,202.9688 C254,202.9688 254.2656,202.8281 254.4375,202.6094 C254.5469,202.4531 254.5781,202.2656 254.5781,201.8438 L254.5781,200.4219 C254.5781,199.9844 254.5625,199.8594 254.4688,199.7031 C254.3125,199.4375 254.0313,199.2969 253.7344,199.2969 C253.4375,199.2969 253.2344,199.3906 253.0156,199.7031 L252.8438,199.625 Z "/><text fill="#000000" font-family="sans-serif" font-size="12" lengthAdjust="spacingAndGlyphs" textLength="87" x="264.5" y="208.1074">SwingStrategy</text><line style="stroke: #A80036; stroke-width: 1.5;" x1="236.5" x2="353.5" y1="219.9531" y2="219.9531"/><line style="stroke: #A80036; stroke-width: 1.5;" x1="236.5" x2="353.5" y1="227.9531" y2="227.9531"/><!--MD5=[e6f67585185a4b3ef1aae8f414a63962]
class Calculator--><rect fill="#FEFECE" filter="url(#f10tc56br8e4nv)" height="48" id="Calculator" style="stroke: #A80036; stroke-width: 1.5;" width="91" x="291.5" y="54.4531"/><ellipse cx="306.5" cy="70.4531" fill="#ADD1B2" rx="11" ry="11" style="stroke: #A80036; stroke-width: 1.0;"/><path d="M308.8438,66.125 C307.9063,65.6875 307.3125,65.5469 306.4375,65.5469 C303.8125,65.5469 301.8125,67.625 301.8125,70.3438 L301.8125,71.4688 C301.8125,74.0469 303.9219,75.9375 306.8125,75.9375 C308.0313,75.9375 309.1875,75.6406 309.9375,75.0938 C310.5156,74.6875 310.8438,74.2344 310.8438,73.8438 C310.8438,73.3906 310.4531,73 309.9844,73 C309.7656,73 309.5625,73.0781 309.375,73.2656 C308.9219,73.75 308.9219,73.75 308.7344,73.8438 C308.3125,74.1094 307.625,74.2344 306.8594,74.2344 C304.8125,74.2344 303.5156,73.1406 303.5156,71.4375 L303.5156,70.3438 C303.5156,68.5625 304.7656,67.25 306.5,67.25 C307.0781,67.25 307.6875,67.4063 308.1563,67.6563 C308.6406,67.9375 308.8125,68.1563 308.9063,68.5625 C308.9688,68.9688 309,69.0938 309.1406,69.2188 C309.2813,69.3594 309.5156,69.4688 309.7344,69.4688 C310,69.4688 310.2656,69.3281 310.4375,69.1094 C310.5469,68.9531 310.5781,68.7656 310.5781,68.3438 L310.5781,66.9219 C310.5781,66.4844 310.5625,66.3594 310.4688,66.2031 C310.3125,65.9375 310.0313,65.7969 309.7344,65.7969 C309.4375,65.7969 309.2344,65.8906 309.0156,66.2031 L308.8438,66.125 Z "/><text fill="#000000" font-family="sans-serif" font-size="12" lengthAdjust="spacingAndGlyphs" textLength="59" x="320.5" y="74.6074">Calculator</text><line style="stroke: #A80036; stroke-width: 1.5;" x1="292.5" x2="381.5" y1="86.4531" y2="86.4531"/><line style="stroke: #A80036; stroke-width: 1.5;" x1="292.5" x2="381.5" y1="94.4531" y2="94.4531"/><!--MD5=[60d6b92408f98aed8df94d5c6e04aa63]
class State--><rect fill="#FEFECE" filter="url(#f10tc56br8e4nv)" height="99.2188" id="State" style="stroke: #A80036; stroke-width: 1.5;" width="189" x="417.5" y="28.9531"/><ellipse cx="492.25" cy="44.9531" fill="#ADD1B2" rx="11" ry="11" style="stroke: #A80036; stroke-width: 1.0;"/><path d="M494.5938,40.625 C493.6563,40.1875 493.0625,40.0469 492.1875,40.0469 C489.5625,40.0469 487.5625,42.125 487.5625,44.8438 L487.5625,45.9688 C487.5625,48.5469 489.6719,50.4375 492.5625,50.4375 C493.7813,50.4375 494.9375,50.1406 495.6875,49.5938 C496.2656,49.1875 496.5938,48.7344 496.5938,48.3438 C496.5938,47.8906 496.2031,47.5 495.7344,47.5 C495.5156,47.5 495.3125,47.5781 495.125,47.7656 C494.6719,48.25 494.6719,48.25 494.4844,48.3438 C494.0625,48.6094 493.375,48.7344 492.6094,48.7344 C490.5625,48.7344 489.2656,47.6406 489.2656,45.9375 L489.2656,44.8438 C489.2656,43.0625 490.5156,41.75 492.25,41.75 C492.8281,41.75 493.4375,41.9063 493.9063,42.1563 C494.3906,42.4375 494.5625,42.6563 494.6563,43.0625 C494.7188,43.4688 494.75,43.5938 494.8906,43.7188 C495.0313,43.8594 495.2656,43.9688 495.4844,43.9688 C495.75,43.9688 496.0156,43.8281 496.1875,43.6094 C496.2969,43.4531 496.3281,43.2656 496.3281,42.8438 L496.3281,41.4219 C496.3281,40.9844 496.3125,40.8594 496.2188,40.7031 C496.0625,40.4375 495.7813,40.2969 495.4844,40.2969 C495.1875,40.2969 494.9844,40.3906 494.7656,40.7031 L494.5938,40.625 Z "/><text fill="#000000" font-family="sans-serif" font-size="12" lengthAdjust="spacingAndGlyphs" textLength="31" x="512.75" y="49.1074">State</text><line style="stroke: #A80036; stroke-width: 1.5;" x1="418.5" x2="605.5" y1="60.9531" y2="60.9531"/><text fill="#000000" font-family="sans-serif" font-size="11" lengthAdjust="spacingAndGlyphs" textLength="69" x="423.5" y="75.1636">enum Digits</text><text fill="#000000" font-family="sans-serif" font-size="11" lengthAdjust="spacingAndGlyphs" textLength="93" x="423.5" y="87.9683">enum Operators</text><line style="stroke: #A80036; stroke-width: 1.5;" x1="418.5" x2="605.5" y1="94.5625" y2="94.5625"/><ellipse cx="428.5" cy="105.5625" fill="#84BE84" rx="3" ry="3" style="stroke: #038048; stroke-width: 1.0;"/><text fill="#000000" font-family="sans-serif" font-size="11" lengthAdjust="spacingAndGlyphs" textLength="115" x="437.5" y="108.7729">onPress(digit: Digits)</text><ellipse cx="428.5" cy="118.3672" fill="#84BE84" rx="3" ry="3" style="stroke: #038048; stroke-width: 1.0;"/><text fill="#000000" font-family="sans-serif" font-size="11" lengthAdjust="spacingAndGlyphs" textLength="163" x="437.5" y="121.5776">onPress(operator: Operators)</text><!--MD5=[fea294b58d473e9280cfe4c83798149e]
class State1--><rect fill="#FEFECE" filter="url(#f10tc56br8e4nv)" height="48" id="State1" style="stroke: #A80036; stroke-width: 1.5;" width="70" x="433" y="187.9531"/><ellipse cx="448" cy="203.9531" fill="#ADD1B2" rx="11" ry="11" style="stroke: #A80036; stroke-width: 1.0;"/><path d="M450.3438,199.625 C449.4063,199.1875 448.8125,199.0469 447.9375,199.0469 C445.3125,199.0469 443.3125,201.125 443.3125,203.8438 L443.3125,204.9688 C443.3125,207.5469 445.4219,209.4375 448.3125,209.4375 C449.5313,209.4375 450.6875,209.1406 451.4375,208.5938 C452.0156,208.1875 452.3438,207.7344 452.3438,207.3438 C452.3438,206.8906 451.9531,206.5 451.4844,206.5 C451.2656,206.5 451.0625,206.5781 450.875,206.7656 C450.4219,207.25 450.4219,207.25 450.2344,207.3438 C449.8125,207.6094 449.125,207.7344 448.3594,207.7344 C446.3125,207.7344 445.0156,206.6406 445.0156,204.9375 L445.0156,203.8438 C445.0156,202.0625 446.2656,200.75 448,200.75 C448.5781,200.75 449.1875,200.9063 449.6563,201.1563 C450.1406,201.4375 450.3125,201.6563 450.4063,202.0625 C450.4688,202.4688 450.5,202.5938 450.6406,202.7188 C450.7813,202.8594 451.0156,202.9688 451.2344,202.9688 C451.5,202.9688 451.7656,202.8281 451.9375,202.6094 C452.0469,202.4531 452.0781,202.2656 452.0781,201.8438 L452.0781,200.4219 C452.0781,199.9844 452.0625,199.8594 451.9688,199.7031 C451.8125,199.4375 451.5313,199.2969 451.2344,199.2969 C450.9375,199.2969 450.7344,199.3906 450.5156,199.7031 L450.3438,199.625 Z "/><text fill="#000000" font-family="sans-serif" font-size="12" lengthAdjust="spacingAndGlyphs" textLength="38" x="462" y="208.1074">State1</text><line style="stroke: #A80036; stroke-width: 1.5;" x1="434" x2="502" y1="219.9531" y2="219.9531"/><line style="stroke: #A80036; stroke-width: 1.5;" x1="434" x2="502" y1="227.9531" y2="227.9531"/><!--MD5=[8cc037637095e940935efba53ef29e5a]
class State2--><rect fill="#FEFECE" filter="url(#f10tc56br8e4nv)" height="48" id="State2" style="stroke: #A80036; stroke-width: 1.5;" width="71" x="538.5" y="187.9531"/><ellipse cx="553.5" cy="203.9531" fill="#ADD1B2" rx="11" ry="11" style="stroke: #A80036; stroke-width: 1.0;"/><path d="M555.8438,199.625 C554.9063,199.1875 554.3125,199.0469 553.4375,199.0469 C550.8125,199.0469 548.8125,201.125 548.8125,203.8438 L548.8125,204.9688 C548.8125,207.5469 550.9219,209.4375 553.8125,209.4375 C555.0313,209.4375 556.1875,209.1406 556.9375,208.5938 C557.5156,208.1875 557.8438,207.7344 557.8438,207.3438 C557.8438,206.8906 557.4531,206.5 556.9844,206.5 C556.7656,206.5 556.5625,206.5781 556.375,206.7656 C555.9219,207.25 555.9219,207.25 555.7344,207.3438 C555.3125,207.6094 554.625,207.7344 553.8594,207.7344 C551.8125,207.7344 550.5156,206.6406 550.5156,204.9375 L550.5156,203.8438 C550.5156,202.0625 551.7656,200.75 553.5,200.75 C554.0781,200.75 554.6875,200.9063 555.1563,201.1563 C555.6406,201.4375 555.8125,201.6563 555.9063,202.0625 C555.9688,202.4688 556,202.5938 556.1406,202.7188 C556.2813,202.8594 556.5156,202.9688 556.7344,202.9688 C557,202.9688 557.2656,202.8281 557.4375,202.6094 C557.5469,202.4531 557.5781,202.2656 557.5781,201.8438 L557.5781,200.4219 C557.5781,199.9844 557.5625,199.8594 557.4688,199.7031 C557.3125,199.4375 557.0313,199.2969 556.7344,199.2969 C556.4375,199.2969 556.2344,199.3906 556.0156,199.7031 L555.8438,199.625 Z "/><text fill="#000000" font-family="sans-serif" font-size="12" lengthAdjust="spacingAndGlyphs" textLength="39" x="567.5" y="208.1074">State2</text><line style="stroke: #A80036; stroke-width: 1.5;" x1="539.5" x2="608.5" y1="219.9531" y2="219.9531"/><line style="stroke: #A80036; stroke-width: 1.5;" x1="539.5" x2="608.5" y1="227.9531" y2="227.9531"/><!--MD5=[47c6090338d4f2e05bc9fa3f4c047a00]
reverse link ShowStrategy to ConsoleStrategy--><path d="M145.24,128.8411 C142.479,149.01 139.418,171.3719 137.188,187.6601 " fill="none" id="ShowStrategy&lt;-ConsoleStrategy" style="stroke: #A80036; stroke-width: 1.0; stroke-dasharray: 7.0,7.0;"/><polygon fill="none" points="138.313,127.8301,147.96,108.9641,152.183,129.7291,138.313,127.8301" style="stroke: #A80036; stroke-width: 1.0;"/><!--MD5=[3fac39e523f26b7e8a21fc61db8bf40c]
reverse link ShowStrategy to SwingStrategy--><path d="M198.871,122.5551 C222.447,144.235 250.093,169.6574 269.67,187.6601 " fill="none" id="ShowStrategy&lt;-SwingStrategy" style="stroke: #A80036; stroke-width: 1.0; stroke-dasharray: 7.0,7.0;"/><polygon fill="none" points="194.075,127.6551,184.092,108.9641,203.552,117.3491,194.075,127.6551" style="stroke: #A80036; stroke-width: 1.0;"/><!--MD5=[66b0167828a6010fca56e2affda5d022]
reverse link State to State1--><path d="M489.336,147.1886 C484.42,161.8807 479.548,176.4405 475.704,187.93 " fill="none" id="State&lt;-State1" style="stroke: #A80036; stroke-width: 1.0;"/><polygon fill="none" points="482.757,144.7905,495.741,128.0451,496.033,149.2329,482.757,144.7905" style="stroke: #A80036; stroke-width: 1.0;"/><!--MD5=[d723ca8acf6686879b161e363a2a1b18]
reverse link State to State2--><path d="M543.469,146.1979 C550.554,161.2248 557.606,176.1823 563.145,187.93 " fill="none" id="State&lt;-State2" style="stroke: #A80036; stroke-width: 1.0;"/><polygon fill="none" points="537.108,149.1206,534.91,128.0451,549.771,143.1501,537.108,149.1206" style="stroke: #A80036; stroke-width: 1.0;"/><!--MD5=[661904f483f51567bc2025ff839e00c3]
link Ui to ShowStrategy--><path d="M62.2812,78.4531 C62.2812,78.4531 69.0705,78.4531 71.8486,78.4531 " fill="none" id="Ui-ShowStrategy" style="stroke: #A80036; stroke-width: 1.0;"/><polygon fill="#A80036" points="84.8497,78.4531,75.8497,74.4531,79.8497,78.4531,75.8497,82.4531,84.8497,78.4531" style="stroke: #A80036; stroke-width: 1.0;"/><line style="stroke: #A80036; stroke-width: 1.0;" x1="79.8497" x2="71.8498" y1="78.4531" y2="78.4531"/><polygon fill="#FFFFFF" points="50.2812,78.4531,56.2812,82.4531,62.2812,78.4531,56.2812,74.4531,50.2812,78.4531" style="stroke: #A80036; stroke-width: 1.0;"/><!--MD5=[be162820178855577746179e4f1b796d]
link Calculator to State--><path d="M394.801,78.4531 C394.801,78.4531 401.591,78.4531 404.37,78.4531 " fill="none" id="Calculator-State" style="stroke: #A80036; stroke-width: 1.0;"/><polygon fill="#A80036" points="417.372,78.4531,408.372,74.4531,412.372,78.4531,408.372,82.4531,417.372,78.4531" style="stroke: #A80036; stroke-width: 1.0;"/><line style="stroke: #A80036; stroke-width: 1.0;" x1="412.372" x2="404.372" y1="78.4531" y2="78.4531"/><polygon fill="#FFFFFF" points="382.801,78.4531,388.801,82.4531,394.801,78.4531,388.801,74.4531,382.801,78.4531" style="stroke: #A80036; stroke-width: 1.0;"/><!--MD5=[1ea1ecac6f3d099cc987da841054af2f]
@startuml
title Calculator

class Ui {

}

Interface ShowStrategy {
    +show(string: String)
}

class ConsoleStrategy implements ShowStrategy {

}

class SwingStrategy implements ShowStrategy {

}

class Calculator {

}

class State {
    enum Digits
    enum Operators
    
    +onPress(digit: Digits)
    +onPress(operator: Operators)
}

class State1 extends State {

}

class State2 extends State {

}

Ui o-> ShowStrategy
Calculator o-> State
@enduml

PlantUML version 1.2020.10(Sun May 17 09:48:49 UTC 2020)
(GPL source distribution)
Java Runtime: Java(TM) SE Runtime Environment
JVM: Java HotSpot(TM) 64-Bit Server VM
Operating System: Linux
Default Encoding: UTF-8
Language: en
Country: US
--></g></svg>